<svg width="25" height="25" viewBox="0 0 25 25" fill="none" xmlns="http://www.w3.org/2000/svg">
<g clip-path="url(#clip0_5098_60)">
<path d="M17.75 1.93042C16.6239 1.94793 15.5224 2.26227 14.5567 2.84169C13.591 3.42111 12.7953 4.24509 12.25 5.23042C11.7046 4.24509 10.9089 3.42111 9.9432 2.84169C8.9775 2.26227 7.87601 1.94793 6.74996 1.93042C4.9549 2.00841 3.26366 2.79367 2.04574 4.11465C0.827818 5.43563 0.182208 7.18495 0.249958 8.98042C0.249958 13.5274 5.03596 18.4934 9.04996 21.8604C9.94618 22.6136 11.0793 23.0264 12.25 23.0264C13.4206 23.0264 14.5537 22.6136 15.45 21.8604C19.464 18.4934 24.25 13.5274 24.25 8.98042C24.3177 7.18495 23.6721 5.43563 22.4542 4.11465C21.2363 2.79367 19.545 2.00841 17.75 1.93042ZM14.165 20.3304C13.6289 20.7818 12.9507 21.0293 12.25 21.0293C11.5492 21.0293 10.871 20.7818 10.335 20.3304C5.19696 16.0194 2.24996 11.8834 2.24996 8.98042C2.1816 7.71514 2.61632 6.47415 3.45932 5.52812C4.30232 4.58209 5.48519 4.00777 6.74996 3.93042C8.01472 4.00777 9.1976 4.58209 10.0406 5.52812C10.8836 6.47415 11.3183 7.71514 11.25 8.98042C11.25 9.24564 11.3553 9.49999 11.5429 9.68753C11.7304 9.87506 11.9847 9.98042 12.25 9.98042C12.5152 9.98042 12.7695 9.87506 12.9571 9.68753C13.1446 9.49999 13.25 9.24564 13.25 8.98042C13.1816 7.71514 13.6163 6.47415 14.4593 5.52812C15.3023 4.58209 16.4852 4.00777 17.75 3.93042C19.0147 4.00777 20.1976 4.58209 21.0406 5.52812C21.8836 6.47415 22.3183 7.71514 22.25 8.98042C22.25 11.8834 19.303 16.0194 14.165 20.3264V20.3304Z" fill="#181818"/>
</g>
<defs>
<clipPath id="clip0_5098_60">
<rect width="24" height="24" fill="white" transform="translate(0.25 0.013916)"/>
</clipPath>
</defs>
</svg>
